<svg xmlns="http://www.w3.org/2000/svg" fill="none" viewBox="0 0 222 64" height="64" width="222">
<path fill="white" d="M35.694 17.9219H6.5293V45.2019H35.694V17.9219Z"></path>
<path fill="#FF4500" d="M24.1952 35.7172H18.1011V34.1772H24.1952V35.7172ZM24.1952 28.9641H18.1011V27.4241H24.1952V28.9641Z"></path>
<path fill="#FF4500" d="M43.5294 54H0V10H43.5294V54ZM12.0672 42.5195H28.0068L31.6154 38.8719V34.6162L28.6075 31.5758L31.0138 29.1444V25.1923L27.4044 21.5447H12.0681L12.0672 42.5195Z" clip-rule="evenodd" fill-rule="evenodd"></path>
<path fill="black" d="M55.2822 42.2343V22.1509H62.1181C62.7906 22.1473 63.4571 22.2783 64.0793 22.5363C64.7015 22.7943 65.267 23.1742 65.7433 23.6541C66.2195 24.1341 66.5971 24.7045 66.8543 25.3326C67.1114 25.9608 67.243 26.6341 67.2415 27.3139V28.4623C67.2415 29.7805 66.7592 31.0143 65.933 31.9066C66.5213 32.3932 66.9952 33.0059 67.3204 33.7003C67.6457 34.3948 67.8141 35.1537 67.8135 35.922V37.0704C67.8151 37.7503 67.6836 38.4237 67.4265 39.052C67.1694 39.6802 66.7918 40.2507 66.3156 40.7308C65.8393 41.2108 65.2737 41.5908 64.6515 41.8488C64.0292 42.1069 63.3626 42.2379 62.6901 42.2343H55.2822ZM58.1273 39.3664H62.684C63.9681 39.3664 64.9632 38.364 64.9632 37.0696V35.922C64.9632 34.6284 63.9681 33.6252 62.684 33.6252H58.1273V39.3664ZM58.1273 30.7582H62.1111C63.3952 30.7582 64.3903 29.7559 64.3903 28.4623V27.3139C64.3903 26.0203 63.3952 25.0171 62.1111 25.0171H58.1273V30.7582ZM70.7595 42.2334V27.6166H73.5916V29.8254L76.7953 27.6166H77.6172C80.2272 27.6166 82.381 29.9108 82.381 32.7743V33.9209H79.549V32.7743C79.549 31.5124 78.7568 30.481 77.6233 30.481H77.3647L73.5977 33.0286V42.2264H70.7656L70.7595 42.2334ZM89.3057 42.2334C86.4719 42.2334 84.2014 39.97 84.2014 37.1004V32.7743C84.1991 32.0962 84.3296 31.4244 84.5853 30.7975C84.8411 30.1706 85.217 29.6011 85.6915 29.1218C86.1659 28.6424 86.7295 28.2627 87.3498 28.0045C87.9701 27.7463 88.6349 27.6148 89.3057 27.6175H91.5753C92.2461 27.6148 92.9108 27.7463 93.5311 28.0045C94.1514 28.2627 94.7151 28.6424 95.1895 29.1218C95.664 29.6011 96.0399 30.1706 96.2957 30.7975C96.5514 31.4244 96.6819 32.0962 96.6796 32.7743V37.1004C96.6796 39.9639 94.4099 42.2334 91.5753 42.2334H89.3057ZM87.0361 37.1065C87.0361 38.3984 88.0268 39.3391 89.3057 39.369H91.5753C92.8551 39.369 93.8458 38.3922 93.8458 37.1056V32.7804C93.8458 31.4877 92.8551 30.4872 91.5753 30.4872H89.3057C89.0066 30.4833 88.7098 30.5399 88.4328 30.6538C88.1558 30.7676 87.9041 30.9364 87.6925 31.1501C87.481 31.3638 87.314 31.6182 87.2012 31.8982C87.0885 32.1782 87.0323 32.4782 87.0361 32.7804V37.1065ZM101.838 42.2334L99.1433 34.206V27.6166H101.975V33.3507L103.392 37.9073L105.804 30.1959H108.126L110.532 37.9073L111.949 33.3507V27.6175H114.781V34.206L112.086 42.2334H109.675L106.956 35.3835L104.238 42.2334H101.826H101.838ZM121.823 42.2334C119.072 42.2334 117.03 40.425 117.03 37.9918V37.4216H119.865V37.9918C119.865 38.9079 120.604 39.5696 121.823 39.5696H124.406C125.739 39.5696 126.394 39.024 126.394 38.1924C126.394 34.9523 117.229 37.0458 117.229 31.4877C117.229 29.1645 119.072 27.6175 121.769 27.6175H124.208C126.76 27.6175 128.748 29.4796 128.748 31.8881V32.1495H125.913V31.8881C125.913 30.9729 125.204 30.2804 124.214 30.2804H121.775C120.586 30.2804 120.076 30.7661 120.076 31.4816C120.076 33.8056 129.24 32.344 129.24 38.1863C129.24 40.5948 127.282 42.2264 124.417 42.2264H121.835L121.823 42.2334ZM136.593 42.2334C133.783 42.2334 131.49 39.8847 131.49 37.0458V32.7743C131.49 32.0969 131.622 31.4262 131.879 30.8005C132.135 30.1747 132.511 29.6061 132.985 29.1273C133.459 28.6484 134.021 28.2686 134.641 28.0095C135.26 27.7505 135.923 27.6173 136.593 27.6175H138.864C140.171 27.6096 141.431 28.1116 142.382 29.019C143.333 29.9264 143.9 31.1693 143.967 32.4892V35.5832H134.324V37.0458C134.326 37.6536 134.565 38.236 134.991 38.6657C135.416 39.0954 135.992 39.3375 136.593 39.3391H138.864C139.465 39.3375 140.041 39.0954 140.467 38.6657C140.892 38.236 141.132 37.6536 141.134 37.0458V36.7598H143.967V37.0458C143.967 39.8847 141.698 42.2334 138.864 42.2334H136.593ZM134.324 33.2961H141.134V32.7804C141.138 32.478 141.082 32.1778 140.969 31.8976C140.857 31.6174 140.69 31.3628 140.478 31.149C140.267 30.9352 140.015 30.7665 139.737 30.6528C139.46 30.5391 139.163 30.4828 138.864 30.4872H136.593C136.295 30.4852 135.999 30.5431 135.723 30.6577C135.447 30.7722 135.196 30.941 134.984 31.1544C134.773 31.3677 134.606 31.6213 134.493 31.9004C134.379 32.1796 134.322 32.4787 134.324 32.7804V33.2961ZM147.074 42.2334V27.6166H149.906V29.8254L153.109 27.6166H153.931C156.541 27.6166 158.695 29.9108 158.695 32.7743V33.9209H155.863V32.7743C155.863 31.5124 155.071 30.481 153.937 30.481H153.685L149.918 33.0286V42.2264H147.086L147.074 42.2334ZM166.186 42.2343L163.832 40.6265V42.2352H160.998V21.8799H163.832V29.2164L166.186 27.6087H168.372C169.042 27.608 169.706 27.7409 170.325 27.9998C170.945 28.2588 171.508 28.6386 171.982 29.1177C172.456 29.5967 172.832 30.1656 173.088 30.7917C173.345 31.4177 173.476 32.0888 173.476 32.7664V37.0696C173.476 39.9093 171.176 42.2272 168.372 42.2272H166.186V42.2343ZM163.832 37.1611L167.063 39.3699H168.366C168.967 39.3685 169.543 39.1265 169.969 38.6968C170.394 38.267 170.634 37.6846 170.636 37.0766V32.7734C170.634 32.1655 170.394 31.583 169.969 31.1532C169.543 30.7235 168.967 30.4815 168.366 30.4801H167.063L163.832 32.6889V37.1611ZM181.173 42.2334C178.35 42.2334 176.047 39.9093 176.047 37.0766V32.7743C176.047 29.9108 178.356 27.6175 181.173 27.6175H183.368L185.732 29.2252V27.6166H188.578V42.2334H185.732V40.6239L183.368 42.2325L181.173 42.2334ZM178.893 37.0766C178.896 37.6856 179.138 38.2686 179.565 38.6981C179.992 39.1276 180.57 39.3688 181.173 39.369H182.481L185.726 37.1602V32.6898L182.481 30.481H181.173C180.57 30.4812 179.992 30.7225 179.565 31.1522C179.138 31.5819 178.896 32.1651 178.893 32.7743V37.0766ZM196.21 42.2334C193.459 42.2334 191.417 40.425 191.417 37.9918V37.4216H194.252V37.9918C194.252 38.9079 194.99 39.5696 196.21 39.5696H198.792C200.125 39.5696 200.78 39.024 200.78 38.1924C200.78 34.9523 191.615 37.0458 191.615 31.4877C191.615 29.1645 193.459 27.6175 196.156 27.6175H198.594C201.147 27.6175 203.134 29.4796 203.134 31.8881V32.1495H200.3V31.8881C200.3 30.9729 199.591 30.2804 198.6 30.2804H196.162C194.972 30.2804 194.461 30.7661 194.461 31.4816C194.461 33.8056 203.627 32.344 203.627 38.1863C203.627 40.5948 201.669 42.2264 198.804 42.2264H196.222L196.21 42.2334ZM210.98 42.2334C208.17 42.2334 205.876 39.8847 205.876 37.0458V32.7743C205.876 32.0969 206.008 31.4261 206.264 30.8003C206.521 30.1744 206.897 29.6058 207.371 29.1269C207.845 28.6481 208.408 28.2683 209.027 28.0093C209.646 27.7503 210.31 27.6171 210.98 27.6175H213.25C214.557 27.6098 215.817 28.1119 216.768 29.0192C217.718 29.9265 218.286 31.1693 218.354 32.4892V35.5832H208.71V37.0458C208.712 37.6537 208.952 38.2362 209.377 38.6659C209.802 39.0957 210.379 39.3377 210.98 39.3391H213.25C213.851 39.3377 214.427 39.0957 214.853 38.666C215.278 38.2362 215.518 37.6538 215.52 37.0458V36.7598H218.354V37.0458C218.354 39.8847 216.084 42.2334 213.25 42.2334H210.98ZM208.71 33.2961H215.52V32.7804C215.52 31.4877 214.529 30.4872 213.25 30.4872H210.98C210.681 30.4852 210.386 30.5431 210.109 30.6577C209.833 30.7722 209.582 30.941 209.371 31.1544C209.16 31.3677 208.993 31.6213 208.879 31.9004C208.766 32.1796 208.708 32.4787 208.71 32.7804V33.2961Z"></path>
</svg>
