<svg xmlns="http://www.w3.org/2000/svg" fill="none" viewBox="0 0 145 64" height="64" width="145">
<g clip-path="url(#clip0_19277_13450)">
<path fill="#061E3B" d="M133.338 37.3809C132.014 36.8856 130.375 37.4725 129.098 37.8241C127.69 38.2388 126.008 38.8312 124.586 38.8985C123.884 38.9669 123.181 38.7795 122.607 38.3708C122.032 37.9621 121.624 37.3594 121.457 36.6737C121.046 35.1562 121.9 33.613 123.111 32.7061C122.607 32.938 122.154 33.2678 121.778 33.6764C121.402 34.0851 121.112 34.5644 120.923 35.0866C120.64 35.9418 120.679 36.8709 121.033 37.6991C121.387 38.5274 122.031 39.1978 122.844 39.5842C124.457 40.291 126.28 39.7861 127.885 39.3553C128.925 39.0614 129.933 38.7144 130.927 38.4521C131.622 38.2896 132.384 38.0768 132.991 38.2768C133.121 38.3098 133.24 38.377 133.336 38.4715C133.431 38.566 133.5 38.6843 133.535 38.8142C133.569 38.9441 133.569 39.081 133.533 39.2106C133.497 39.3403 133.428 39.458 133.331 39.5517C132.526 40.5813 131.252 41.1961 130.487 42.2824C130.326 42.5061 130.222 42.7659 130.184 43.0391C130.279 42.7933 130.428 42.5726 130.622 42.3941C131.623 41.4446 132.938 41.0628 133.915 40.0292C134.115 39.8424 134.262 39.6071 134.343 39.3463C134.424 39.0854 134.436 38.8079 134.378 38.541C134.32 38.2741 134.194 38.0268 134.011 37.8235C133.829 37.6201 133.597 37.4677 133.338 37.3809M137.552 31.7347C135.344 31.1396 133.169 30.3898 130.889 30.0153C127.989 29.536 124.789 29.6491 122.143 31.0737C119.943 32.2868 118.124 34.524 118.072 37.1287C118.006 40.6513 120.756 43.3668 123.418 45.2721C124.083 45.7706 124.721 46.3054 125.327 46.8743C126.141 47.6444 126.913 48.4575 127.64 49.3101C128.323 50.005 129.116 50.9485 130.11 51.0002C132.029 51.0588 131.223 48.5218 130.754 46.9599C130.431 45.8846 129.936 44.8033 130.06 43.6639C129.929 44.2283 129.917 44.8136 130.024 45.3829C130.104 45.9551 130.236 46.5159 130.359 47.0734C130.488 47.7972 131.031 49.6072 130.496 50.0439C130.338 50.1534 130.144 50.1994 129.954 50.1731C129.763 50.1467 129.589 50.0499 129.467 49.9016C129.088 49.5187 128.742 49.1041 128.433 48.6624C127.746 47.7258 127.004 46.8317 126.209 45.9848C125.6 45.3505 124.956 44.7501 124.281 44.1862C122.436 42.6802 120.585 40.9424 119.89 38.616C118.941 35.5466 121.451 32.5903 124.266 31.6436C126.353 30.9555 128.569 30.7502 130.747 31.043C132.992 31.287 135.19 31.8918 137.419 32.3248C139.629 32.7469 142.176 33.016 144.136 31.6693C142.073 32.7762 139.699 32.3138 137.552 31.7379M116.526 31.0673C116.615 32.9876 116.995 34.8832 117.654 36.6888C117.253 34.847 117.099 32.9599 117.197 31.0774C117.727 23.6591 123.042 20.2368 130.108 20.6611C135.754 20.9724 143.426 25.3112 144.999 31.0375C144.794 28.2199 142.839 25.4637 140.897 23.5016C139.222 21.7744 137.175 20.4532 134.912 19.6389C134.628 18.1193 134.187 16.6335 133.595 15.2058C133.295 14.4596 132.912 13.7226 132.543 13.0039C130.241 13.57 128.052 14.5252 126.071 15.8284C124.248 16.9894 122.679 18.5071 121.457 20.2903C124.012 17.258 127.746 15.4516 131.564 14.6331C131.633 14.6189 131.706 14.6047 131.778 14.591C132.494 16.0521 133.035 17.5927 133.39 19.1807C131.371 18.7029 129.284 18.5856 127.225 18.8341C123.558 19.1807 120.58 20.8543 118.702 23.4096C117.433 23.2334 116.157 23.0406 114.894 22.825L114.335 22.7289C114.167 23.3621 114.056 24.0088 114.002 24.6616C113.903 26.0106 114.013 27.3669 114.33 28.6818C114.726 30.4074 115.476 32.032 116.531 33.4528C116.103 32.6997 115.751 31.9053 115.482 31.0815C114.766 28.8417 114.683 26.4472 115.244 24.1636C116.147 24.3125 117.05 24.4514 117.954 24.5802C116.885 26.567 116.391 28.8123 116.525 31.0646M131.177 24.5682C130.097 23.7595 128.837 23.224 127.505 23.0074C126.173 22.7909 124.809 22.8996 123.528 23.3245L123.136 23.4806L123.241 23.8889C123.497 24.816 124.004 25.6546 124.705 26.3128C125.406 26.9709 126.274 27.4233 127.215 27.6202C125.95 26.7312 124.783 25.5808 124.307 24.099C126.585 23.5419 128.943 23.9351 131.177 24.5682Z"></path>
<path fill="#061E3B" d="M106.269 38.5412C105.615 40.2862 104.569 40.4821 101.474 40.4821C100.538 40.5265 99.6008 40.4533 98.6835 40.2642V33.4827H101.539C103.064 33.4827 103.74 33.6576 104.11 34.9224L104.263 35.5551H104.808V30.6253H104.263L104.11 31.2579C103.74 32.5232 103.064 32.6972 101.539 32.6972H98.6835V26.1757H102.651C104.285 26.1757 105.375 26.3286 106.007 28.1171L106.443 29.3385H106.988V25.3906H94.4775V25.8484C96.025 25.9793 96.4609 26.1537 96.4609 27.4405V39.2196C96.4609 40.5064 96.025 40.6808 94.4775 40.8117V41.2695H107.162L107.489 36.7545H106.944L106.269 38.5412Z"></path>
<path fill="#061E3B" d="M88.2009 25.845C89.9665 25.9978 90.5767 26.7829 89.7918 28.1572L86.4573 34.1998L82.8396 27.7214C82.1855 26.5435 82.3602 25.9983 84.2347 25.8445V25.3867H78.2412V25.8445C79.0911 25.9974 79.527 26.3897 80.2461 27.655L84.7141 35.4853V39.2152C84.7141 40.502 84.2782 40.6764 82.7088 40.8074V41.2651H88.92V40.8074C87.373 40.6764 86.9366 40.502 86.9366 39.2152V35.2234L91.2317 27.6555C91.9288 26.4337 92.2993 25.9978 93.237 25.845V25.3872H88.2009V25.845Z"></path>
<path fill="#061E3B" d="M75.9303 38.5412C75.2762 40.2862 74.2306 40.4821 71.1353 40.4821C70.1997 40.5265 69.2624 40.4533 68.345 40.2642V33.4827H71.2007C72.7262 33.4827 73.4017 33.6576 73.7723 34.9224L73.925 35.5551H74.4698V30.6253H73.925L73.7723 31.2579C73.4017 32.5232 72.7262 32.6972 71.2007 32.6972H68.345V26.1757H72.3117C73.9465 26.1757 75.0361 26.3286 75.6682 28.1171L76.1042 29.3385H76.6489V25.3906H64.1387V25.8484C65.6861 25.9793 66.122 26.1537 66.122 27.4405V39.2196C66.122 40.5064 65.6861 40.6808 64.1387 40.8117V41.2695H76.8232L77.1498 36.7545H76.605L75.9303 38.5412Z"></path>
<path fill="#061E3B" d="M61.5704 38.5412C60.9163 40.2862 59.8706 40.4821 56.7753 40.4821C56.3418 40.4888 55.9094 40.4375 55.4895 40.3297V27.4405C55.4895 26.1537 55.9254 25.9793 57.4948 25.8484V25.3906H51.2822V25.8484C52.8297 25.9793 53.2656 26.1537 53.2656 27.4405V39.2196C53.2656 40.5064 52.8297 40.6808 51.2822 40.8117V41.2695H62.4431L62.7697 36.7545H62.2469L61.5704 38.5412Z"></path>
<path fill="#061E3B" d="M48.5363 38.5412C47.8822 40.2862 46.8365 40.4821 43.7412 40.4821C43.3077 40.4888 42.8753 40.4375 42.4554 40.3297V27.4405C42.4554 26.1537 42.8913 25.9793 44.4607 25.8484V25.3906H38.249V25.8484C39.796 25.9793 40.2324 26.1537 40.2324 27.4405V39.2196C40.2324 40.5064 39.7965 40.6808 38.249 40.8117V41.2695H49.4099L49.7365 36.7545H49.2137L48.5363 38.5412Z"></path>
<path fill="#061E3B" d="M34.8479 39.0905L29.4646 25.3906H28.0695L22.7104 39.0017C22.296 40.0701 21.9255 40.6593 20.7705 40.8117V41.2695H25.8935V40.8117C24.0639 40.6588 23.3654 40.0921 23.9102 38.7179L24.8657 36.2523H31.361L32.4501 39.0905C32.9075 40.2899 32.5809 40.6607 30.7503 40.8136V41.2713H36.7219V40.8136C35.5665 40.6607 35.2618 40.1374 34.8465 39.0905M25.1708 35.4461L28.1134 27.8992L31.0353 35.4461H25.1708Z"></path>
<path fill="#061E3B" d="M22.9718 25.8484V25.3906H17.8281V25.8484C19.3971 26.0013 20.2254 26.6555 19.7461 28.2041L16.6078 38.3906L12.5331 25.3906H11.6604L7.45218 38.3457L4.29374 27.7463C3.92323 26.5465 4.22833 26.0013 6.05935 25.8489V25.3911H0V25.8489C1.17692 26.0018 1.54743 26.4815 1.89598 27.5719L6.12431 41.2695H7.51942L11.4856 29.0112L15.3 41.2695H16.6956L21.0319 27.6589C21.3809 26.59 21.7948 26.0013 22.9718 25.8484Z"></path>
</g>
<defs>
<clipPath id="clip0_19277_13450">
<rect transform="translate(0 13)" fill="white" height="38" width="145"></rect>
</clipPath>
</defs>
</svg>
