<svg xmlns="http://www.w3.org/2000/svg" fill="none" viewBox="0 0 917 125" height="125" width="917">
<path fill="#141413" d="M916.923 93.5625C913.923 99.2292 910.131 103.5 905.548 106.375C901.006 109.208 895.631 110.625 889.423 110.625C882.923 110.625 877.194 109.292 872.235 106.625C867.277 103.958 863.423 100.229 860.673 95.4375C857.923 90.6458 856.548 85.125 856.548 78.875C856.548 72.3333 858.027 66.3958 860.985 61.0625C863.944 55.6875 867.965 51.4792 873.048 48.4375C878.131 45.3542 883.735 43.8125 889.86 43.8125C895.152 43.8125 899.777 44.8958 903.735 47.0625C907.735 49.1875 910.798 52.2292 912.923 56.1875C915.09 60.1458 916.173 64.75 916.173 70V73.8125H868.11V67.875L903.673 67.0625L901.798 69.75C901.798 65.625 901.277 62.1042 900.235 59.1875C899.194 56.2708 897.673 54.0625 895.673 52.5625C893.673 51.0625 891.256 50.3125 888.423 50.3125C884.965 50.3125 881.923 51.3333 879.298 53.375C876.673 55.375 874.631 58.1875 873.173 61.8125C871.715 65.4375 870.985 69.5625 870.985 74.1875C870.985 79.3542 871.881 83.7708 873.673 87.4375C875.465 91.1042 878.069 93.8958 881.485 95.8125C884.902 97.7292 888.985 98.6875 893.735 98.6875C897.444 98.6875 900.923 97.9167 904.173 96.375C907.465 94.8333 910.506 92.6667 913.298 89.875L916.923 93.5625Z"></path>
<path fill="#141413" d="M837.641 33.25L818.016 25.9375V21.6875L837.641 14.375H842.578L837.641 33.25ZM842.578 97.625C842.578 98.9583 842.87 100.042 843.453 100.875C844.036 101.667 845.036 102.313 846.453 102.813C847.87 103.271 849.828 103.646 852.328 103.938V109.375H818.016V103.938C820.516 103.646 822.474 103.271 823.891 102.813C825.307 102.313 826.307 101.667 826.891 100.875C827.474 100.042 827.766 98.9583 827.766 97.625V23.375L842.578 14.375V97.625Z"></path>
<path fill="#141413" d="M763.26 14.375V103.563H760.322L754.51 109.375H748.447V23.3125L763.26 14.375ZM758.322 33.25L738.697 25.9375V21.6875L758.322 14.375H763.26L758.322 33.25ZM756.01 90.5625C759.635 95.2708 763.01 98.6042 766.135 100.563C769.301 102.521 772.822 103.5 776.697 103.5C781.156 103.5 785.051 102.458 788.385 100.375C791.76 98.25 794.343 95.25 796.135 91.375C797.968 87.4583 798.885 82.8333 798.885 77.5C798.885 72.5417 798.072 68.2917 796.447 64.75C794.822 61.2083 792.489 58.5208 789.447 56.6875C786.447 54.8125 782.885 53.875 778.76 53.875C776.301 53.875 773.718 54.3958 771.01 55.4375C768.301 56.4792 765.739 57.9375 763.322 59.8125C760.906 61.6458 758.906 63.7083 757.322 66L755.947 62.4375C758.156 58.6042 760.781 55.2917 763.822 52.5C766.906 49.7083 770.239 47.5625 773.822 46.0625C777.447 44.5625 781.135 43.8125 784.885 43.8125C790.426 43.8125 795.447 45.1042 799.947 47.6875C804.447 50.2292 807.968 53.7708 810.51 58.3125C813.093 62.8125 814.385 67.875 814.385 73.5C814.385 80.875 812.822 87.375 809.697 93C806.614 98.625 802.281 102.979 796.697 106.063C791.156 109.104 784.801 110.625 777.635 110.625C773.176 110.625 768.864 109.875 764.697 108.375C760.531 106.875 757.114 104.833 754.447 102.25L756.01 90.5625Z"></path>
<path fill="#141413" d="M738.758 108.5C737.008 109.125 735.216 109.604 733.383 109.937C731.591 110.271 729.904 110.437 728.32 110.437C723.779 110.437 720.279 109.25 717.82 106.875C715.362 104.5 714.133 101.146 714.133 96.8125V62.75C714.133 58.2917 713.07 54.9167 710.945 52.625C708.862 50.3333 705.758 49.1875 701.633 49.1875C698.008 49.1875 695.133 50.2917 693.008 52.5C690.924 54.7083 689.883 57.7083 689.883 61.5V67.125H679.758C678.549 66.375 677.612 65.3958 676.945 64.1875C676.32 62.9375 676.008 61.5625 676.008 60.0625C676.008 57.1042 677.154 54.3958 679.445 51.9375C681.737 49.4375 684.841 47.4583 688.758 46C692.674 44.5417 696.966 43.8125 701.633 43.8125C707.466 43.8125 712.404 44.6875 716.445 46.4375C720.529 48.1875 723.633 50.7708 725.758 54.1875C727.883 57.6042 728.945 61.7292 728.945 66.5625V96.25C728.945 97.7083 729.237 98.875 729.82 99.75C730.445 100.625 731.466 101.333 732.883 101.875C734.299 102.375 736.258 102.771 738.758 103.062V108.5ZM715.883 97.1875C712.758 101.604 709.133 104.958 705.008 107.25C700.924 109.5 696.466 110.625 691.633 110.625C688.049 110.625 684.883 109.958 682.133 108.625C679.424 107.292 677.299 105.417 675.758 103C674.258 100.583 673.508 97.7917 673.508 94.625C673.508 90 674.966 86.1875 677.883 83.1875C680.799 80.1458 685.32 77.75 691.445 76L717.008 68.75L717.133 74.4375L697.133 80.375C694.216 81.25 691.987 82.625 690.445 84.5C688.904 86.3333 688.133 88.5833 688.133 91.25C688.133 93.0833 688.591 94.7083 689.508 96.125C690.424 97.5417 691.695 98.6458 693.32 99.4375C694.987 100.229 696.862 100.625 698.945 100.625C701.987 100.625 705.008 99.8125 708.008 98.1875C711.008 96.5208 713.612 94.25 715.82 91.375L715.883 97.1875Z"></path>
<path fill="#141413" d="M596.333 103.75C599.125 103.542 601.271 103.146 602.771 102.563C604.271 101.938 605.333 101 605.958 99.75C606.583 98.4583 606.896 96.6667 606.896 94.375V30.625C606.896 28.3333 606.583 26.5625 605.958 25.3125C605.333 24.0208 604.271 23.0833 602.771 22.5C601.271 21.875 599.125 21.4583 596.333 21.25V15.625H673.645V40.5H668.02C666.937 35.7917 665.583 32.1667 663.958 29.625C662.333 27.0833 660.145 25.2917 657.396 24.25C654.645 23.1667 650.958 22.625 646.333 22.625H621.208L623.083 20.75V94.375C623.083 96.6667 623.396 98.4583 624.021 99.75C624.687 101 625.771 101.938 627.271 102.563C628.771 103.146 630.896 103.542 633.646 103.75V109.375H596.333V103.75ZM641.646 59C643.896 59 645.708 58.6042 647.083 57.8125C648.5 57.0208 649.625 55.7083 650.458 53.875C651.291 52.0417 651.958 49.5 652.458 46.25H658.021V78.625H652.458C651.958 75.4167 651.291 72.9167 650.458 71.125C649.625 69.2917 648.5 67.9792 647.083 67.1875C645.708 66.3958 643.896 66 641.646 66H616.833V59H641.646Z"></path>
<path fill="#141413" d="M200.168 110.625C190.376 110.625 181.647 108.688 173.98 104.813C166.355 100.896 160.397 95.4167 156.105 88.375C151.814 81.3333 149.668 73.25 149.668 64.125C149.668 54.4167 151.855 45.7917 156.23 38.25C160.647 30.7083 166.751 24.8542 174.543 20.6875C182.335 16.4792 191.189 14.375 201.105 14.375C207.064 14.375 213.001 15.0208 218.918 16.3125C224.876 17.5625 230.105 19.5208 234.605 22.1875V42.75H228.98C227.397 35.2083 224.293 29.7292 219.668 26.3125C215.085 22.8958 208.814 21.1875 200.855 21.1875C193.23 21.1875 186.897 22.8958 181.855 26.3125C176.814 29.7292 173.085 34.5 170.668 40.625C168.251 46.7083 167.043 53.7917 167.043 61.875C167.043 69.8333 168.397 76.9792 171.105 83.3125C173.814 89.6458 177.835 94.6458 183.168 98.3125C188.501 101.979 194.918 103.813 202.418 103.813C207.501 103.813 211.855 102.813 215.48 100.813C219.147 98.8125 222.23 96.0833 224.73 92.625C227.23 89.125 229.564 84.8333 231.73 79.75H237.605L233.605 102.313C229.272 105.104 224.105 107.188 218.105 108.563C212.105 109.938 206.126 110.625 200.168 110.625ZM243.168 103.938C245.626 103.646 247.543 103.271 248.918 102.813C250.335 102.313 251.355 101.646 251.98 100.813C252.605 99.9792 252.918 98.9167 252.918 97.625V29.5625L243.168 25.875V21.6875L262.793 14.375H267.793V97.625C267.793 98.9167 268.105 99.9792 268.73 100.813C269.355 101.646 270.355 102.313 271.73 102.813C273.147 103.271 275.085 103.646 277.543 103.938V109.375H243.168V103.938ZM300.355 110.625C296.772 110.625 293.605 109.958 290.855 108.625C288.105 107.292 285.96 105.417 284.418 103C282.918 100.583 282.168 97.7917 282.168 94.625C282.168 90 283.626 86.1875 286.543 83.1875C289.501 80.1458 294.043 77.75 300.168 76L322.855 69.5625V62.75C322.855 58.2917 321.793 54.9167 319.668 52.625C317.585 50.3333 314.48 49.1875 310.355 49.1875C306.73 49.1875 303.855 50.2917 301.73 52.5C299.647 54.7083 298.605 57.7083 298.605 61.5V67.125H288.48C287.272 66.375 286.335 65.3958 285.668 64.1875C285.043 62.9375 284.73 61.5625 284.73 60.0625C284.73 57.1042 285.876 54.3958 288.168 51.9375C290.46 49.4375 293.564 47.4583 297.48 46C301.397 44.5417 305.689 43.8125 310.355 43.8125C316.189 43.8125 321.147 44.6875 325.23 46.4375C329.314 48.1875 332.418 50.7708 334.543 54.1875C336.668 57.6042 337.73 61.7292 337.73 66.5625V96.25C337.73 97.7083 338.022 98.875 338.605 99.75C339.23 100.625 340.23 101.333 341.605 101.875C343.022 102.375 344.98 102.771 347.48 103.063V108.5C343.855 109.792 340.376 110.438 337.043 110.438C333.001 110.438 329.751 109.479 327.293 107.563C324.876 105.646 323.439 102.896 322.98 99.3125C319.939 103.063 316.522 105.896 312.73 107.813C308.939 109.688 304.814 110.625 300.355 110.625ZM307.668 100.625C310.335 100.625 312.98 100 315.605 98.75C318.272 97.4583 320.689 95.6667 322.855 93.375V75.3125L305.855 80.375C302.939 81.25 300.71 82.625 299.168 84.5C297.626 86.3333 296.855 88.5833 296.855 91.25C296.855 93.0833 297.314 94.7083 298.23 96.125C299.147 97.5417 300.418 98.6458 302.043 99.4375C303.71 100.229 305.585 100.625 307.668 100.625ZM376.543 110.625C369.876 110.625 364.814 108.938 361.355 105.563C357.897 102.146 356.168 97.1667 356.168 90.625V58.375L346.418 54.9375V50.75L366.105 43.8125H371.043V88.0625C371.043 92.0208 372.043 94.9583 374.043 96.875C376.043 98.7917 379.126 99.75 383.293 99.75C385.96 99.75 388.814 99.1458 391.855 97.9375C394.939 96.7292 397.814 95.0625 400.48 92.9375V58.375L390.73 54.9375V50.75L410.418 43.8125H415.355V92.5C415.355 93.9583 415.647 95.125 416.23 96C416.855 96.875 417.855 97.5625 419.23 98.0625C420.605 98.5625 422.564 98.9792 425.105 99.3125V104.75L405.418 110H400.48V98.9375C396.98 102.563 393.085 105.417 388.793 107.5C384.543 109.583 380.46 110.625 376.543 110.625ZM458.73 110.625C453.105 110.625 448.043 109.354 443.543 106.813C439.085 104.229 435.585 100.688 433.043 96.1875C430.501 91.6458 429.23 86.5625 429.23 80.9375C429.23 73.6042 430.751 67.125 433.793 61.5C436.876 55.875 441.189 51.5208 446.73 48.4375C452.272 45.3542 458.689 43.8125 465.98 43.8125C468.355 43.8125 470.772 44.0625 473.23 44.5625C475.73 45.0625 478.085 45.7708 480.293 46.6875V29.5625L470.543 25.875V21.6875L490.168 14.375H495.168V92.5C495.168 93.9583 495.46 95.125 496.043 96C496.668 96.875 497.668 97.5625 499.043 98.0625C500.418 98.5625 502.376 98.9792 504.918 99.3125V104.75L485.23 110H480.293V101.438C477.168 104.396 473.751 106.667 470.043 108.25C466.335 109.833 462.564 110.625 458.73 110.625ZM464.855 100.563C467.355 100.563 469.96 100.042 472.668 99C475.376 97.9167 477.918 96.4583 480.293 94.625V56C476.21 52.6667 471.751 51 466.918 51C462.168 51 458.126 52.125 454.793 54.375C451.46 56.625 448.939 59.7083 447.23 63.625C445.564 67.5417 444.73 71.9792 444.73 76.9375C444.73 81.6458 445.48 85.7708 446.98 89.3125C448.48 92.8542 450.73 95.625 453.73 97.625C456.772 99.5833 460.48 100.563 464.855 100.563ZM541.293 110.625C535.168 110.625 529.647 109.229 524.73 106.438C519.814 103.646 515.96 99.7708 513.168 94.8125C510.418 89.8125 509.043 84.1875 509.043 77.9375C509.043 71.6042 510.46 65.8333 513.293 60.625C516.126 55.4167 520.001 51.3125 524.918 48.3125C529.876 45.3125 535.376 43.8125 541.418 43.8125C546.001 43.8125 550.272 44.7708 554.23 46.6875C558.189 48.6042 561.501 51.2917 564.168 54.75C566.876 58.2083 568.668 62.1667 569.543 66.625L524.168 80.375C525.418 85.875 527.897 90.1875 531.605 93.3125C535.355 96.3958 539.96 97.9375 545.418 97.9375C550.001 97.9375 554.105 96.8542 557.73 94.6875C561.355 92.4792 564.564 89.1458 567.355 84.6875L572.168 86.1875C571.001 91.1042 568.939 95.4167 565.98 99.125C563.064 102.792 559.48 105.625 555.23 107.625C550.98 109.625 546.335 110.625 541.293 110.625ZM553.293 64.75C552.71 61.9583 551.751 59.5208 550.418 57.4375C549.126 55.3125 547.501 53.6875 545.543 52.5625C543.585 51.3958 541.397 50.8125 538.98 50.8125C535.939 50.8125 533.23 51.7083 530.856 53.5C528.481 55.2917 526.626 57.8333 525.293 61.125C523.96 64.375 523.293 68.1458 523.293 72.4375C523.293 73.1458 523.314 73.7083 523.355 74.125L553.293 64.75Z"></path>
<path fill="#D97757" d="M54.375 118.75L56.125 111L58.125 101L59.75 93L61.25 83.125L62.125 79.875L62 79.625L61.375 79.75L53.875 90L42.5 105.375L33.5 114.875L31.375 115.75L27.625 113.875L28 110.375L30.125 107.375L42.5 91.5L50 81.625L54.875 76L54.75 75.25H54.5L21.5 96.75L15.625 97.5L13 95.125L13.375 91.25L14.625 90L24.5 83.125L49.125 69.375L49.5 68.125L49.125 67.5H47.875L43.75 67.25L29.75 66.875L17.625 66.375L5.75 65.75L2.75 65.125L0 61.375L0.25 59.5L2.75 57.875L6.375 58.125L14.25 58.75L26.125 59.5L34.75 60L47.5 61.375H49.5L49.75 60.5L49.125 60L48.625 59.5L36.25 51.25L23 42.5L16 37.375L12.25 34.75L10.375 32.375L9.625 27.125L13 23.375L17.625 23.75L18.75 24L23.375 27.625L33.25 35.25L46.25 44.875L48.125 46.375L49 45.875V45.5L48.125 44.125L41.125 31.375L33.625 18.375L30.25 13L29.375 9.75C29.0417 8.625 28.875 7.375 28.875 6L32.75 0.750006L34.875 0L40.125 0.750006L42.25 2.625L45.5 10L50.625 21.625L58.75 37.375L61.125 42.125L62.375 46.375L62.875 47.75H63.75V47L64.375 38L65.625 27.125L66.875 13.125L67.25 9.125L69.25 4.375L73.125 1.87501L76.125 3.25L78.625 6.875L78.25 9.125L76.875 18.75L73.875 33.875L72 44.125H73.125L74.375 42.75L79.5 36L88.125 25.25L91.875 21L96.375 16.25L99.25 14H104.625L108.5 19.875L106.75 26L101.25 33L96.625 38.875L90 47.75L86 54.875L86.375 55.375H87.25L102.125 52.125L110.25 50.75L119.75 49.125L124.125 51.125L124.625 53.125L122.875 57.375L112.625 59.875L100.625 62.25L82.75 66.5L82.5 66.625L82.75 67L90.75 67.75L94.25 68H102.75L118.5 69.125L122.625 71.875L125 75.125L124.625 77.75L118.25 80.875L109.75 78.875L89.75 74.125L83 72.5H82V73L87.75 78.625L98.125 88L111.25 100.125L111.875 103.125L110.25 105.625L108.5 105.375L97 96.625L92.5 92.75L82.5 84.375H81.875V85.25L84.125 88.625L96.375 107L97 112.625L96.125 114.375L92.875 115.5L89.5 114.875L82.25 104.875L74.875 93.5L68.875 83.375L68.25 83.875L64.625 121.625L63 123.5L59.25 125L56.125 122.625L54.375 118.75Z"></path>
</svg>
